<svg width="124" height="44" viewBox="0 0 124 44" fill="none" xmlns="http://www.w3.org/2000/svg">
    <path
        d="M121.204 14C120.797 14 120.423 13.9375 120.08 13.8125C119.738 13.6875 119.441 13.5139 119.188 13.2917C118.935 13.0648 118.739 12.8009 118.6 12.5C118.462 12.1944 118.392 11.8611 118.392 11.5C118.392 11.1389 118.462 10.8079 118.6 10.5069C118.739 10.2014 118.935 9.9375 119.188 9.71528C119.441 9.48843 119.738 9.3125 120.08 9.1875C120.423 9.0625 120.794 9 121.196 9C121.603 9 121.975 9.0625 122.312 9.1875C122.654 9.3125 122.951 9.48843 123.204 9.71528C123.457 9.9375 123.653 10.2014 123.792 10.5069C123.931 10.8079 124 11.1389 124 11.5C124 11.8611 123.931 12.1944 123.792 12.5C123.653 12.8056 123.457 13.0694 123.204 13.2917C122.951 13.5139 122.654 13.6875 122.312 13.8125C121.975 13.9375 121.605 14 121.204 14ZM121.196 13.2083C121.459 13.2083 121.702 13.1667 121.925 13.0833C122.148 13 122.341 12.8819 122.505 12.7292C122.669 12.5718 122.795 12.3912 122.884 12.1875C122.979 11.9792 123.026 11.75 123.026 11.5C123.026 11.25 122.979 11.0231 122.884 10.8194C122.795 10.6111 122.669 10.4306 122.505 10.2778C122.341 10.1204 122.148 10 121.925 9.91667C121.702 9.83333 121.459 9.79167 121.196 9.79167C120.933 9.79167 120.69 9.83333 120.467 9.91667C120.249 10 120.056 10.1204 119.887 10.2778C119.723 10.4306 119.595 10.6111 119.5 10.8194C119.411 11.0231 119.366 11.25 119.366 11.5C119.366 11.7454 119.411 11.9722 119.5 12.1806C119.595 12.3889 119.723 12.5718 119.887 12.7292C120.051 12.8819 120.244 13 120.467 13.0833C120.69 13.1667 120.933 13.2083 121.196 13.2083Z"
        fill="black" />
    <path fill-rule="evenodd" clip-rule="evenodd"
        d="M108 13.9306V9.06944H110.142C110.603 9.06944 110.997 9.13889 111.325 9.27778C111.657 9.41667 111.912 9.61574 112.091 9.875C112.269 10.1343 112.358 10.4421 112.358 10.7986C112.358 11.1551 112.269 11.463 112.091 11.7222C111.912 11.9815 111.657 12.1806 111.325 12.3194C110.997 12.4583 110.603 12.5278 110.142 12.5278H108.967V13.9306H108ZM111.057 11.5139C110.844 11.6806 110.524 11.7639 110.097 11.7639H108.967V9.83333H110.097C110.524 9.83333 110.844 9.91667 111.057 10.0833C111.275 10.25 111.384 10.4884 111.384 10.7986C111.384 11.1042 111.275 11.3426 111.057 11.5139Z"
        fill="black" />
    <path fill-rule="evenodd" clip-rule="evenodd"
        d="M113.324 13.9306V9.06944H115.466C115.927 9.06944 116.321 9.13889 116.648 9.27778C116.981 9.41667 117.236 9.61574 117.415 9.875C117.593 10.1343 117.682 10.4421 117.682 10.7986C117.682 11.1551 117.593 11.463 117.415 11.7222C117.236 11.9769 116.981 12.1736 116.648 12.3125C116.625 12.322 116.602 12.3312 116.578 12.3401L117.772 13.9306H116.73L115.67 12.5093C115.603 12.5124 115.535 12.5139 115.466 12.5139H114.291V13.9306H113.324ZM116.381 11.5139C116.167 11.6852 115.848 11.7708 115.421 11.7708H114.291V9.83333H115.421C115.848 9.83333 116.167 9.91667 116.381 10.0833C116.599 10.25 116.708 10.4884 116.708 10.7986C116.708 11.1042 116.599 11.3426 116.381 11.5139Z"
        fill="black" />
    <path d="M0 35V9L13 20L26 9V35H0Z" fill="black" />
    <path
        d="M56 22C56 29.1797 50.1797 35 43 35C35.8203 35 30 29.1797 30 22C30 14.8203 35.8203 9 43 9C50.1797 9 56 14.8203 56 22Z"
        fill="black" />
    <path d="M59 9V35H73.8571V34.9621C80.0901 34.4515 85 28.8432 85 22C85 15.1568 80.0901 9.54851 73.8571 9.03789V9H59Z"
        fill="black" />
    <path d="M98 9H83L108 35H122L98 9Z" fill="black" />
</svg>