<?xml version="1.0" encoding="utf-8"?><svg width="124" height="44" fill="none" xmlns="http://www.w3.org/2000/svg" viewBox="0 0 124 44"><path d="M121.204 14c-.407 0-.781-.063-1.124-.188a2.784 2.784 0 01-.892-.52 2.415 2.415 0 01-.588-.792 2.402 2.402 0 01-.208-1 2.322 2.322 0 01.796-1.785c.253-.227.55-.402.892-.527A3.231 3.231 0 01121.196 9c.407 0 .779.063 1.116.188.342.124.639.3.892.527A2.322 2.322 0 01124 11.5a2.323 2.323 0 01-.796 1.792c-.253.222-.55.396-.892.52a3.166 3.166 0 01-1.108.188zm-.008-.792c.263 0 .506-.041.729-.125.223-.083.416-.201.58-.354.164-.157.29-.338.379-.541.095-.209.142-.438.142-.688 0-.25-.047-.477-.142-.68a1.672 1.672 0 00-.959-.903 2.067 2.067 0 00-.729-.125c-.263 0-.506.041-.729.125a1.77 1.77 0 00-.58.36 1.687 1.687 0 00-.387.542c-.089.204-.134.431-.134.681 0 .245.045.472.134.68.095.209.223.392.387.55.164.152.357.27.58.353.223.084.466.125.729.125z" fill="#000"/><path fill-rule="evenodd" clip-rule="evenodd" d="M108 13.93V9.07h2.142c.461 0 .855.069 1.183.208.332.139.587.338.766.597.178.26.267.567.267.924 0 .356-.089.664-.267.923-.179.26-.434.459-.766.597-.328.14-.722.209-1.183.209h-1.175v1.403H108zm3.057-2.416c-.213.167-.533.25-.96.25h-1.13v-1.93h1.13c.427 0 .747.083.96.25.218.166.327.404.327.715 0 .305-.109.544-.327.715zM113.324 13.93V9.07h2.142c.461 0 .855.069 1.182.208.333.139.588.338.767.597.178.26.267.567.267.924 0 .356-.089.664-.267.923a1.714 1.714 0 01-.837.618l1.194 1.59h-1.042l-1.06-1.42a4.414 4.414 0 01-.204.004h-1.175v1.417h-.967zm3.057-2.416c-.214.171-.533.257-.96.257h-1.13V9.833h1.13c.427 0 .746.084.96.25.218.167.327.405.327.716 0 .305-.109.544-.327.715z" fill="#000"/><path d="M0 35V9l13 11L26 9v26H0zM56 22c0 7.18-5.82 13-13 13s-13-5.82-13-13S35.82 9 43 9s13 5.82 13 13zM59 9v26h14.857v-.038C80.09 34.452 85 28.843 85 22S80.09 9.549 73.857 9.038V9H59zM98 9H83l25 26h14L98 9z" fill="#000"/></svg>